<svg width="8" height="18" viewBox="0 0 8 18" fill="none" xmlns="http://www.w3.org/2000/svg">
<path d="M0.46875 3.59375C0.46875 2.97396 0.619792 2.40885 0.921875 1.89844C1.22396 1.38802 1.6276 0.981771 2.13281 0.679688C2.64323 0.372396 3.20833 0.21875 3.82812 0.21875C4.45833 0.21875 5.02604 0.372396 5.53125 0.679688C6.04167 0.981771 6.44531 1.38802 6.74219 1.89844C7.04427 2.40885 7.19531 2.97396 7.19531 3.59375C7.19531 4.10417 7.09115 4.57812 6.88281 5.01562C6.67969 5.45312 6.39844 5.83073 6.03906 6.14844C5.67969 6.46094 5.26823 6.6849 4.80469 6.82031V14.3359C4.80469 14.7943 4.77083 15.2188 4.70312 15.6094C4.63542 16 4.54948 16.3411 4.44531 16.6328C4.34115 16.9245 4.23438 17.151 4.125 17.3125C4.01562 17.474 3.91667 17.5547 3.82812 17.5547C3.74479 17.5547 3.64844 17.4714 3.53906 17.3047C3.42969 17.1432 3.32292 16.9167 3.21875 16.625C3.11458 16.3333 3.02604 15.9922 2.95312 15.6016C2.88542 15.2161 2.85156 14.7943 2.85156 14.3359V6.82031C2.39323 6.67969 1.98438 6.45312 1.625 6.14062C1.26562 5.82292 0.981771 5.44792 0.773438 5.01562C0.570312 4.57812 0.46875 4.10417 0.46875 3.59375ZM2.88281 3.78906C3.20052 3.78906 3.47135 3.67448 3.69531 3.44531C3.92448 3.21094 4.03906 2.9401 4.03906 2.63281C4.03906 2.32031 3.92448 2.05208 3.69531 1.82812C3.47135 1.59896 3.20052 1.48438 2.88281 1.48438C2.58073 1.48438 2.3125 1.59896 2.07812 1.82812C1.84896 2.05208 1.73438 2.32031 1.73438 2.63281C1.73438 2.9401 1.84896 3.21094 2.07812 3.44531C2.3125 3.67448 2.58073 3.78906 2.88281 3.78906Z" fill="#C5C8CF"/>
</svg>
