<svg width="17" height="16" viewBox="0 0 17 16" fill="none" xmlns="http://www.w3.org/2000/svg">
<path d="M3.25312 15.8517C2.99324 15.8517 2.79585 15.7892 2.66096 15.6643C2.52606 15.5443 2.45608 15.392 2.45109 15.2071C2.44611 15.0271 2.50853 14.8498 2.63844 14.6749C2.75338 14.53 2.89083 14.3425 3.05074 14.1127C3.21065 13.8878 3.37055 13.6505 3.53046 13.4006C3.69036 13.1508 3.82775 12.9159 3.94269 12.696C3.15314 12.3313 2.46107 11.8565 1.86642 11.2719C1.27675 10.6872 0.817055 10.0276 0.487266 9.29305C0.162402 8.5585 0 7.78143 0 6.96195C0 6.01748 0.217407 5.13301 0.652158 4.30847C1.0919 3.484 1.69903 2.76193 2.47355 2.14227C3.25312 1.51768 4.15754 1.03041 5.18695 0.680667C6.21636 0.325869 7.32073 0.148438 8.5 0.148438C9.67933 0.148438 10.7836 0.325869 11.813 0.680667C12.8425 1.03041 13.7444 1.51768 14.519 2.14227C15.2985 2.76193 15.9056 3.484 16.3404 4.30847C16.7801 5.13301 17 6.01748 17 6.96195C17 7.74644 16.8501 8.48853 16.5502 9.18809C16.2554 9.88272 15.8331 10.5149 15.2835 11.0845C14.7388 11.6541 14.0867 12.1438 13.3272 12.5536C12.5726 12.9584 11.7331 13.2657 10.8087 13.4756C9.8842 13.6855 8.89976 13.7754 7.85539 13.7454C7.35066 14.1102 6.80602 14.4525 6.22135 14.7723C5.63667 15.0921 5.07949 15.352 4.54982 15.5519C4.02015 15.7518 3.5879 15.8517 3.25312 15.8517ZM4.04011 14.6074C4.265 14.5125 4.54982 14.3676 4.89464 14.1727C5.2394 13.9778 5.59669 13.7604 5.96652 13.5206C6.33629 13.2857 6.67356 13.0583 6.9784 12.8385C7.11829 12.7285 7.25325 12.6486 7.38316 12.5986C7.51805 12.5436 7.66299 12.5162 7.81791 12.5162C7.96783 12.5212 8.10023 12.5261 8.21517 12.5311C8.33011 12.5311 8.42503 12.5311 8.5 12.5311C9.50939 12.5311 10.4539 12.3862 11.3333 12.0964C12.2128 11.8066 12.9823 11.4068 13.642 10.8971C14.3066 10.3874 14.8262 9.79528 15.2011 9.12067C15.5758 8.44606 15.7632 7.72649 15.7632 6.96195C15.7632 6.19242 15.5758 5.47284 15.2011 4.80322C14.8262 4.12861 14.3066 3.53645 13.642 3.02674C12.9823 2.51203 12.2128 2.10977 11.3333 1.81996C10.4539 1.53015 9.50939 1.38521 8.5 1.38521C7.49061 1.38521 6.54615 1.53015 5.66667 1.81996C4.78719 2.10977 4.01516 2.51203 3.35053 3.02674C2.69095 3.53645 2.17375 4.12861 1.79894 4.80322C1.42917 5.47284 1.24432 6.19242 1.24432 6.96195C1.24432 7.62651 1.38919 8.25865 1.67901 8.8583C1.96888 9.45794 2.3886 10.0076 2.93829 10.5073C3.49297 11.0021 4.1626 11.4318 4.94709 11.7966C5.18695 11.9115 5.3269 12.0514 5.36688 12.2163C5.40685 12.3812 5.37436 12.5611 5.2694 12.756C5.13949 12.9959 4.94709 13.2857 4.69227 13.6255C4.43738 13.9703 4.20507 14.2726 3.99514 14.5324C3.97519 14.5575 3.9702 14.5774 3.98018 14.5924C3.99015 14.6124 4.01017 14.6174 4.04011 14.6074ZM5.00709 8.11627C4.70723 8.11627 4.44991 8.01131 4.235 7.80145C4.02514 7.58654 3.92018 7.32922 3.92018 7.02936C3.92018 6.72957 4.02514 6.47475 4.235 6.26482C4.44991 6.04997 4.70723 5.94251 5.00709 5.94251C5.30189 5.94251 5.55672 6.04997 5.77163 6.26482C5.98648 6.47475 6.09393 6.72957 6.09393 7.02936C6.09393 7.32922 5.98648 7.58654 5.77163 7.80145C5.56177 8.01131 5.30688 8.11627 5.00709 8.11627ZM8.5 8.11627C8.2052 8.11627 7.95031 8.01131 7.73546 7.80145C7.5256 7.58654 7.42064 7.32922 7.42064 7.02936C7.42064 6.72957 7.5256 6.47475 7.73546 6.26482C7.95031 6.04997 8.2052 5.94251 8.5 5.94251C8.79985 5.94251 9.05468 6.04997 9.26454 6.26482C9.47945 6.47475 9.58684 6.72957 9.58684 7.02936C9.58684 7.32922 9.47945 7.58654 9.26454 7.80145C9.05468 8.01131 8.79985 8.11627 8.5 8.11627ZM12.0005 8.11627C11.7006 8.11627 11.4433 8.01131 11.2284 7.80145C11.0185 7.58654 10.9135 7.32922 10.9135 7.02936C10.9135 6.72957 11.0185 6.47475 11.2284 6.26482C11.4433 6.04997 11.7006 5.94251 12.0005 5.94251C12.3002 5.94251 12.5551 6.04997 12.765 6.26482C12.9798 6.47475 13.0873 6.72957 13.0873 7.02936C13.0873 7.32922 12.9798 7.58654 12.765 7.80145C12.5551 8.01131 12.3002 8.11627 12.0005 8.11627Z" fill="#80818B"/>
</svg>
