<svg width="16" height="16" viewBox="0 0 16 16" fill="none" xmlns="http://www.w3.org/2000/svg">
<path d="M11.8955 16C11.1145 16 10.2871 15.8416 9.41319 15.5248C8.53932 15.2081 7.6491 14.7465 6.74245 14.1403C5.83581 13.5341 4.94829 12.7941 4.07988 11.9202C3.20055 11.0464 2.45776 10.1561 1.85151 9.24954C1.24526 8.3429 0.783755 7.45262 0.466974 6.57877C0.155658 5.69947 0 4.86931 0 4.0883C0 3.61866 0.0436933 3.19536 0.13108 2.81849C0.223929 2.44168 0.365933 2.0976 0.557092 1.7863C0.748248 1.475 0.999489 1.18278 1.3108 0.909718C1.34358 0.876931 1.37634 0.846872 1.40912 0.819607C1.44734 0.786821 1.48285 0.754033 1.51562 0.721246C2.06725 0.229722 2.59703 -0.0105505 3.10497 0.000355125C3.3999 0.00580795 3.6839 0.0959192 3.95699 0.270689C4.23554 0.440007 4.50043 0.707614 4.75167 1.07351L6.37378 3.40019C6.58133 3.69506 6.67145 4.00643 6.64414 4.33409C6.61683 4.6563 6.52398 4.94306 6.36559 5.19431L5.62826 6.3494C5.49718 6.55151 5.4808 6.73991 5.57911 6.91468C5.71565 7.1495 5.92046 7.43626 6.19355 7.7749C6.47209 8.11353 6.76703 8.43847 7.07835 8.74977C7.28592 8.95732 7.51256 9.17033 7.75829 9.3888C8.0041 9.60181 8.2362 9.79566 8.45466 9.97043C8.67313 10.1397 8.84245 10.2626 8.96263 10.3391C9.0828 10.4101 9.19745 10.4483 9.30672 10.4538C9.41592 10.4538 9.53337 10.4265 9.65899 10.3718L10.9288 9.74924C11.3221 9.55811 11.6662 9.47073 11.9611 9.48709C12.2614 9.49799 12.5673 9.60999 12.8787 9.823L14.935 11.2321C15.3009 11.4833 15.5685 11.7509 15.7378 12.0349C15.9126 12.3135 16 12.6002 16 12.8951C16 13.1464 15.9399 13.4058 15.8198 13.6734C15.7051 13.9355 15.5248 14.2032 15.279 14.4762C15.2463 14.5145 15.2135 14.55 15.1807 14.5828C15.1535 14.6155 15.1234 14.651 15.0906 14.6892C14.6756 15.1535 14.2167 15.4866 13.7143 15.6887C13.2173 15.8963 12.611 16 11.8955 16ZM11.9037 14.7548C12.3571 14.7438 12.7749 14.6592 13.1572 14.5008C13.5395 14.3424 13.8727 14.1021 14.1567 13.7799C14.1785 13.7526 14.1977 13.728 14.214 13.7062C14.2359 13.6843 14.2577 13.6598 14.2796 13.6324C14.4981 13.3812 14.6073 13.1327 14.6073 12.8869C14.6073 12.7613 14.5799 12.6466 14.5253 12.5428C14.4762 12.4391 14.3915 12.349 14.2713 12.2725L12.3544 10.9863C12.2233 10.9043 12.0922 10.8552 11.9611 10.8388C11.8355 10.8225 11.6934 10.8497 11.5351 10.9208L10.1587 11.5761C9.77644 11.7618 9.45961 11.841 9.20843 11.8137C8.95717 11.7864 8.70864 11.6826 8.46284 11.5024C8.27171 11.3713 8.04234 11.1965 7.77472 10.9781C7.50711 10.7596 7.23397 10.5275 6.95545 10.2817C6.68237 10.036 6.44205 9.80929 6.23451 9.60181C5.91773 9.29051 5.59276 8.92999 5.2596 8.5204C4.9319 8.11074 4.65062 7.75029 4.41577 7.43899C4.23554 7.19326 4.13449 6.95292 4.11264 6.7181C4.0908 6.47776 4.16999 6.21287 4.35023 5.92339L5.16948 4.61261C5.32241 4.35598 5.33333 4.13199 5.20225 3.94086L3.7276 1.7289C3.58014 1.50499 3.37532 1.39306 3.11316 1.39306C2.99846 1.39306 2.87557 1.42033 2.74449 1.475C2.61888 1.52959 2.49326 1.61152 2.36764 1.72072C2.34579 1.7426 2.32121 1.76442 2.29391 1.7863C2.27206 1.80266 2.24748 1.82181 2.22017 1.84362C1.89793 2.12766 1.65489 2.46077 1.49104 2.8431C1.33265 3.21997 1.25072 3.63229 1.24526 4.08012C1.22888 4.7792 1.38727 5.53567 1.72043 6.3494C2.05905 7.15775 2.51511 7.97148 3.08858 8.79073C3.66206 9.60453 4.30654 10.3664 5.02202 11.0764C5.72658 11.7809 6.47756 12.4145 7.27494 12.977C8.07785 13.5341 8.87524 13.9711 9.66717 14.2878C10.4646 14.61 11.2101 14.7657 11.9037 14.7548Z" fill="#80818B"/>
</svg>
