<svg width="29" height="23" viewBox="0 0 29 23" fill="none" xmlns="http://www.w3.org/2000/svg">
<path d="M3.78906 22.3438C2.5625 22.3438 1.64062 22.0391 1.02344 21.4297C0.414062 20.8281 0.109375 19.9219 0.109375 18.7109V6.44141C0.109375 5.23828 0.414062 4.33594 1.02344 3.73438C1.64062 3.125 2.5625 2.82031 3.78906 2.82031H7.05859C7.51953 2.82031 7.85938 2.76562 8.07812 2.65625C8.29688 2.53906 8.53516 2.33594 8.79297 2.04688L9.73047 0.992188C10.0273 0.671875 10.3477 0.425781 10.6914 0.253906C11.043 0.0820312 11.5195 -0.00390625 12.1211 -0.00390625H16.7969C17.3984 -0.00390625 17.875 0.0820312 18.2266 0.253906C18.5781 0.425781 18.8984 0.671875 19.1875 0.992188L20.125 2.04688C20.3047 2.24219 20.4648 2.39844 20.6055 2.51562C20.7539 2.625 20.9219 2.70312 21.1094 2.75C21.2969 2.79688 21.5469 2.82031 21.8594 2.82031H25.2109C26.4297 2.82031 27.3477 3.125 27.9648 3.73438C28.582 4.33594 28.8906 5.23828 28.8906 6.44141V18.7109C28.8906 19.9219 28.582 20.8281 27.9648 21.4297C27.3477 22.0391 26.4297 22.3438 25.2109 22.3438H3.78906ZM14.5 18.8867C15.3828 18.8867 16.2109 18.7227 16.9844 18.3945C17.7578 18.0664 18.4375 17.6094 19.0234 17.0234C19.6094 16.4375 20.0664 15.7578 20.3945 14.9844C20.7227 14.2109 20.8867 13.375 20.8867 12.4766C20.8867 11.2891 20.6016 10.2109 20.0312 9.24219C19.4609 8.27344 18.6914 7.50391 17.7227 6.93359C16.7539 6.36328 15.6797 6.07812 14.5 6.07812C13.6094 6.07812 12.7773 6.24219 12.0039 6.57031C11.2305 6.89844 10.5508 7.35547 9.96484 7.94141C9.38672 8.52734 8.92969 9.20703 8.59375 9.98047C8.26562 10.7539 8.10156 11.5859 8.10156 12.4766C8.10156 13.375 8.26562 14.2109 8.59375 14.9844C8.92969 15.7578 9.38672 16.4375 9.96484 17.0234C10.5508 17.6094 11.2305 18.0664 12.0039 18.3945C12.7773 18.7227 13.6094 18.8867 14.5 18.8867ZM14.5 17.1055C13.6484 17.1055 12.8711 16.8984 12.168 16.4844C11.4727 16.0703 10.9141 15.5156 10.4922 14.8203C10.0781 14.1172 9.87109 13.3359 9.87109 12.4766C9.87109 11.625 10.0781 10.8516 10.4922 10.1562C10.9141 9.45312 11.4727 8.89453 12.168 8.48047C12.8711 8.05859 13.6484 7.84766 14.5 7.84766C15.3516 7.84766 16.125 8.05859 16.8203 8.48047C17.5234 8.89453 18.082 9.45312 18.4961 10.1562C18.9102 10.8516 19.1172 11.625 19.1172 12.4766C19.1172 13.3359 18.9102 14.1172 18.4961 14.8203C18.082 15.5156 17.5234 16.0703 16.8203 16.4844C16.125 16.8984 15.3516 17.1055 14.5 17.1055ZM21.6719 8.16406C21.6719 8.58594 21.8203 8.94531 22.1172 9.24219C22.4219 9.53125 22.7812 9.67188 23.1953 9.66406C23.5938 9.66406 23.9414 9.51953 24.2383 9.23047C24.543 8.94141 24.6953 8.58594 24.6953 8.16406C24.6953 7.76562 24.543 7.41797 24.2383 7.12109C23.9414 6.81641 23.5938 6.66406 23.1953 6.66406C22.7812 6.66406 22.4219 6.81641 22.1172 7.12109C21.8203 7.41797 21.6719 7.76562 21.6719 8.16406Z" fill="#90212A"/>
</svg>
