<svg width="17" height="17" viewBox="0 0 17 17" fill="none" xmlns="http://www.w3.org/2000/svg">
<path d="M4.28125 9.33789H8.35938C8.51562 9.33789 8.64583 9.28581 8.75 9.18164C8.85417 9.07747 8.90625 8.94727 8.90625 8.79102V3.52539C8.90625 3.37435 8.85417 3.24674 8.75 3.14258C8.64583 3.03841 8.51562 2.98633 8.35938 2.98633C8.20833 2.98633 8.08073 3.03841 7.97656 3.14258C7.8724 3.24674 7.82031 3.37435 7.82031 3.52539V8.25195H4.28125C4.125 8.25195 3.99479 8.30404 3.89062 8.4082C3.78646 8.51237 3.73438 8.63997 3.73438 8.79102C3.73438 8.94727 3.78646 9.07747 3.89062 9.18164C3.99479 9.28581 4.125 9.33789 4.28125 9.33789ZM8.36719 16.4629C7.26823 16.4629 6.23698 16.2546 5.27344 15.8379C4.3099 15.4264 3.46354 14.8561 2.73438 14.127C2.00521 13.3926 1.43229 12.5462 1.01562 11.5879C0.604167 10.6243 0.398438 9.5931 0.398438 8.49414C0.398438 7.39518 0.604167 6.36393 1.01562 5.40039C1.43229 4.43685 2.00521 3.59049 2.73438 2.86133C3.46354 2.13216 4.3099 1.56185 5.27344 1.15039C6.23698 0.733724 7.26823 0.525391 8.36719 0.525391C9.46615 0.525391 10.4974 0.733724 11.4609 1.15039C12.4245 1.56185 13.2708 2.13216 14 2.86133C14.7292 3.59049 15.2995 4.43685 15.7109 5.40039C16.1276 6.36393 16.3359 7.39518 16.3359 8.49414C16.3359 9.5931 16.1276 10.6243 15.7109 11.5879C15.2995 12.5462 14.7292 13.3926 14 14.127C13.2708 14.8561 12.4245 15.4264 11.4609 15.8379C10.4974 16.2546 9.46615 16.4629 8.36719 16.4629Z" fill="#C5C8CF"/>
</svg>
