<svg width="13" height="8" viewBox="0 0 13 8" fill="none" xmlns="http://www.w3.org/2000/svg">
<path d="M6.50004 8C6.40514 8 6.31779 7.98228 6.23791 7.94683C6.15304 7.91138 6.07566 7.85821 6.00577 7.78732L0.194701 1.76399C0.0649 1.62722 0 1.46265 0 1.27021C0 1.13857 0.0299533 1.0221 0.0898613 0.920854C0.149769 0.81449 0.232143 0.730942 0.336982 0.670209C0.436828 0.604355 0.551653 0.571429 0.68145 0.571429C0.866171 0.571429 1.02842 0.63981 1.1682 0.776507L6.50004 6.30617L11.8318 0.776507C11.9716 0.63981 12.1339 0.571429 12.3186 0.571429C12.4484 0.571429 12.5632 0.604355 12.663 0.670209C12.7679 0.730942 12.8503 0.81449 12.9102 0.920854C12.9701 1.0221 13 1.13857 13 1.27021C13 1.46265 12.9326 1.62722 12.7978 1.76399L6.99425 7.78732C6.92434 7.85821 6.84945 7.91138 6.76957 7.94683C6.68471 7.98228 6.59487 8 6.50004 8Z" fill="#80818B"/>
</svg>
