<svg width="3" height="11" viewBox="0 0 3 11" fill="none" xmlns="http://www.w3.org/2000/svg">
<path d="M0.501465 0.958807C0.501465 0.696023 0.59557 0.470526 0.78378 0.282315C0.97199 0.0941051 1.19749 0 1.46027 0C1.72306 0 1.94855 0.0941051 2.13676 0.282315C2.32497 0.470526 2.41908 0.696023 2.41908 0.958807C2.41908 1.22159 2.32497 1.44709 2.13676 1.6353C1.94855 1.82351 1.72306 1.91761 1.46027 1.91761C1.28627 1.91761 1.12646 1.87322 0.980868 1.78445C0.835272 1.69922 0.718084 1.58381 0.629306 1.43821C0.544078 1.29616 0.501465 1.13636 0.501465 0.958807Z" fill="#80818B"/>
<path d="M0.501465 5.08967C0.501465 4.82688 0.59557 4.60138 0.78378 4.41317C0.97199 4.22496 1.19749 4.13086 1.46027 4.13086C1.72306 4.13086 1.94855 4.22496 2.13676 4.41317C2.32497 4.60138 2.41908 4.82688 2.41908 5.08967C2.41908 5.35245 2.32497 5.57795 2.13676 5.76616C1.94855 5.95437 1.72306 6.04847 1.46027 6.04847C1.28627 6.04847 1.12646 6.00408 0.980868 5.91531C0.835272 5.83008 0.718084 5.71467 0.629306 5.56907C0.544078 5.42702 0.501465 5.26722 0.501465 5.08967Z" fill="#80818B"/>
<path d="M0.501465 9.22053C0.501465 8.95774 0.59557 8.73224 0.78378 8.54403C0.97199 8.35582 1.19749 8.26172 1.46027 8.26172C1.72306 8.26172 1.94855 8.35582 2.13676 8.54403C2.32497 8.73224 2.41908 8.95774 2.41908 9.22053C2.41908 9.48331 2.32497 9.70881 2.13676 9.89702C1.94855 10.0852 1.72306 10.1793 1.46027 10.1793C1.28627 10.1793 1.12646 10.1349 0.980868 10.0462C0.835272 9.96094 0.718084 9.84553 0.629306 9.69993C0.544078 9.55788 0.501465 9.39808 0.501465 9.22053Z" fill="#80818B"/>
</svg>
