<svg width="25" height="13" viewBox="0 0 25 13" fill="none" xmlns="http://www.w3.org/2000/svg">
<path d="M1.71875 12.3516C1.48958 12.3516 1.3151 12.2995 1.19531 12.1953C1.08073 12.0964 1.01302 11.9714 0.992188 11.8203C0.976562 11.6693 1.01042 11.5156 1.09375 11.3594C1.99479 9.59896 2.89583 7.83854 3.79688 6.07812C4.69792 4.31771 5.59635 2.5599 6.49219 0.804688C6.5599 0.669271 6.64583 0.567708 6.75 0.5C6.85938 0.427083 6.98698 0.390625 7.13281 0.390625H7.65625C7.82292 0.390625 7.9401 0.450521 8.00781 0.570312C8.07552 0.690104 8.07812 0.828125 8.01562 0.984375C7.29167 2.77604 6.56771 4.57031 5.84375 6.36719C5.11979 8.15885 4.39583 9.94792 3.67188 11.7344C3.59896 11.9167 3.48958 12.0651 3.34375 12.1797C3.20312 12.2943 3.00521 12.3516 2.75 12.3516H1.71875ZM22.375 12.3516C22.1198 12.3516 21.9193 12.2943 21.7734 12.1797C21.6328 12.0651 21.526 11.9167 21.4531 11.7344C20.7344 9.94792 20.0104 8.15885 19.2812 6.36719C18.5573 4.57031 17.8333 2.77604 17.1094 0.984375C17.0469 0.828125 17.0495 0.690104 17.1172 0.570312C17.1849 0.450521 17.3021 0.390625 17.4688 0.390625H17.9922C18.138 0.390625 18.263 0.427083 18.3672 0.5C18.4766 0.567708 18.5677 0.669271 18.6406 0.804688C19.5365 2.5599 20.4349 4.31771 21.3359 6.07812C22.237 7.83854 23.1354 9.59896 24.0312 11.3594C24.1146 11.5156 24.1458 11.6693 24.125 11.8203C24.1094 11.9714 24.0417 12.0964 23.9219 12.1953C23.8073 12.2995 23.638 12.3516 23.4141 12.3516H22.375ZM12.375 2.67969C12.1927 2.67969 12.0365 2.61719 11.9062 2.49219C11.7812 2.36719 11.7188 2.21094 11.7188 2.02344C11.7188 1.86198 11.7188 1.69792 11.7188 1.53125C11.7188 1.36458 11.7188 1.20052 11.7188 1.03906C11.7188 0.851562 11.7812 0.695312 11.9062 0.570312C12.0365 0.445312 12.1927 0.382812 12.375 0.382812H12.7344C12.9167 0.382812 13.0703 0.445312 13.1953 0.570312C13.3255 0.695312 13.3906 0.851562 13.3906 1.03906C13.3906 1.20052 13.3906 1.36458 13.3906 1.53125C13.3906 1.69792 13.3906 1.86198 13.3906 2.02344C13.3906 2.21094 13.3255 2.36719 13.1953 2.49219C13.0703 2.61719 12.9167 2.67969 12.7344 2.67969H12.375ZM12.375 7.1875C12.1927 7.1875 12.0365 7.1276 11.9062 7.00781C11.7812 6.88281 11.7188 6.72656 11.7188 6.53906C11.7188 6.26302 11.7188 5.98958 11.7188 5.71875C11.7188 5.44271 11.7188 5.16927 11.7188 4.89844C11.7188 4.71094 11.7812 4.55729 11.9062 4.4375C12.0365 4.3125 12.1927 4.25 12.375 4.25H12.7344C12.9167 4.25 13.0703 4.3125 13.1953 4.4375C13.3255 4.55729 13.3906 4.71094 13.3906 4.89844C13.3906 5.16927 13.3906 5.44271 13.3906 5.71875C13.3906 5.98958 13.3906 6.26302 13.3906 6.53906C13.3906 6.72656 13.3255 6.88281 13.1953 7.00781C13.0703 7.1276 12.9167 7.1875 12.7344 7.1875H12.375ZM12.375 12.3516C12.1927 12.3516 12.0365 12.2891 11.9062 12.1641C11.7812 12.0443 11.7188 11.8906 11.7188 11.7031C11.7188 11.3281 11.7188 10.9531 11.7188 10.5781C11.7188 10.2031 11.7188 9.83073 11.7188 9.46094C11.7188 9.27344 11.7812 9.11719 11.9062 8.99219C12.0365 8.86719 12.1927 8.80469 12.375 8.80469H12.7344C12.9167 8.80469 13.0703 8.86719 13.1953 8.99219C13.3255 9.11719 13.3906 9.27344 13.3906 9.46094C13.3906 9.83073 13.3906 10.2031 13.3906 10.5781C13.3906 10.9531 13.3906 11.3281 13.3906 11.7031C13.3906 11.8906 13.3255 12.0443 13.1953 12.1641C13.0703 12.2891 12.9167 12.3516 12.7344 12.3516H12.375Z" fill="#C5C8CF"/>
</svg>
