<svg width="16" height="16" viewBox="0 0 16 16" fill="none" xmlns="http://www.w3.org/2000/svg">
<path d="M4.79688 11.3782C4.03125 10.6178 3.34635 9.82349 2.74219 8.99536C2.14323 8.16724 1.66927 7.34172 1.32031 6.5188C0.971354 5.69588 0.796875 4.91463 0.796875 4.17505C0.796875 3.68547 0.880208 3.22713 1.04688 2.80005C1.21875 2.37297 1.46615 2.00317 1.78906 1.69067C2.01823 1.47192 2.27604 1.27922 2.5625 1.11255C2.85417 0.940674 3.13281 0.854736 3.39844 0.854736C3.60677 0.854736 3.79167 0.930257 3.95312 1.0813C4.11458 1.23234 4.28906 1.43807 4.47656 1.69849L5.78906 3.52661C5.9349 3.73494 6.03646 3.92244 6.09375 4.08911C6.15104 4.25578 6.17969 4.41724 6.17969 4.57349C6.17969 4.70369 6.16146 4.82609 6.125 4.94067C6.08854 5.05526 6.02083 5.19849 5.92188 5.37036L5.1875 6.62817C5.15625 6.68547 5.1276 6.73755 5.10156 6.78442C5.08073 6.8313 5.07031 6.87817 5.07031 6.92505C5.07031 6.98755 5.07812 7.04744 5.09375 7.10474C5.11458 7.16203 5.13542 7.21151 5.15625 7.25317C5.46875 7.87817 6.00781 8.57349 6.77344 9.33911C7.14323 9.7089 7.52344 10.0474 7.91406 10.3547C8.30469 10.6568 8.64844 10.8756 8.94531 11.011C9.01823 11.0422 9.08333 11.0683 9.14062 11.0891C9.20312 11.1047 9.27083 11.1125 9.34375 11.1125C9.39583 11.1125 9.44271 11.1073 9.48438 11.0969C9.53125 11.0813 9.59115 11.0527 9.66406 11.011L10.9141 10.3235C11.1172 10.2141 11.2786 10.1438 11.3984 10.1125C11.5234 10.0761 11.6458 10.0579 11.7656 10.0579C11.9062 10.0579 12.0417 10.0839 12.1719 10.136C12.3073 10.1829 12.4948 10.2896 12.7344 10.4563L14.6406 11.8235C14.8958 12.0058 15.0781 12.175 15.1875 12.3313C15.3021 12.4875 15.3594 12.649 15.3594 12.8157C15.3594 13.0292 15.3021 13.2584 15.1875 13.5032C15.0781 13.748 14.8802 14.0318 14.5938 14.3547C14.2969 14.6881 13.9297 14.9511 13.4922 15.1438C13.0547 15.3365 12.5755 15.4329 12.0547 15.4329C11.3151 15.4329 10.5312 15.2558 9.70312 14.9016C8.875 14.5474 8.04167 14.0657 7.20312 13.4563C6.36458 12.8417 5.5625 12.149 4.79688 11.3782Z" fill="#C5C8CF"/>
</svg>
