<svg width="16" height="16" viewBox="0 0 16 16" fill="none" xmlns="http://www.w3.org/2000/svg">
<path d="M9.56182 16C9.2054 16 8.9483 15.8727 8.79046 15.6182C8.63262 15.3635 8.49771 15.0454 8.38568 14.6635L6.78183 9.21817L1.26778 7.59906C0.901195 7.48703 0.598247 7.35467 0.358949 7.20191C0.11965 7.04407 0 6.78951 0 6.43817C0 6.16321 0.109466 5.92651 0.3284 5.72792C0.547335 5.52935 0.817183 5.36897 1.13795 5.24678L14.2739 0.21384C14.4522 0.147652 14.6177 0.0967405 14.7704 0.0610985C14.9282 0.0203659 15.0708 0 15.1981 0C15.4475 0 15.6436 0.0712783 15.7862 0.21384C15.9287 0.356402 16 0.552423 16 0.801911C16 0.934286 15.9796 1.07685 15.9389 1.2296C15.9032 1.38234 15.8523 1.54781 15.7862 1.72602L10.7838 14.7933C10.6412 15.1599 10.4706 15.4527 10.2721 15.6716C10.0735 15.8905 9.83672 16 9.56182 16ZM7.12554 8.05728L12.3799 2.80286C12.5887 2.59411 12.8356 2.37263 13.1207 2.13843C13.4059 1.90421 13.6757 1.68528 13.9303 1.48163C13.6452 1.614 13.355 1.75147 13.0597 1.89403C12.7694 2.03151 12.4716 2.15879 12.1661 2.2759L1.84057 6.18615C1.78457 6.20655 1.74638 6.22943 1.72601 6.25491C1.70565 6.27524 1.69547 6.29818 1.69547 6.3236C1.69547 6.34908 1.70565 6.37202 1.72601 6.39235C1.75147 6.41275 1.79475 6.43055 1.85585 6.4458L7.12554 8.05728ZM9.68402 14.3198C9.70944 14.3198 9.73238 14.3071 9.75271 14.2816C9.77311 14.2562 9.79344 14.2154 9.81384 14.1594L13.7241 3.83389C13.8412 3.52331 13.971 3.22037 14.1136 2.92506C14.2562 2.62975 14.3936 2.337 14.526 2.04678C14.3224 2.30644 14.1009 2.58139 13.8615 2.8716C13.6273 3.16181 13.4059 3.41129 13.1971 3.62005L7.94272 8.87446L9.55413 14.1441C9.57453 14.2053 9.59232 14.2485 9.60764 14.274C9.62797 14.3045 9.65345 14.3198 9.68402 14.3198Z" fill="#80818B"/>
</svg>
