<svg width="21" height="20" viewBox="0 0 21 20" fill="none" xmlns="http://www.w3.org/2000/svg">
<path d="M10.3955 0.5C10.5044 0.500035 10.5807 0.532614 10.6543 0.608398L10.6611 0.615234C10.7356 0.689291 10.8163 0.807878 10.8936 0.988281L10.9697 1.19043L12.832 6.96973L12.9443 7.31641H19.4434C19.7608 7.31641 19.9643 7.36613 20.0869 7.42871V7.42969L20.0977 7.43457C20.1971 7.48265 20.2485 7.54294 20.2793 7.63184V7.63281C20.3121 7.73325 20.3065 7.81801 20.2549 7.91797C20.193 8.03761 20.0593 8.1927 19.8037 8.37109L19.7988 8.37402L14.7969 11.9502L14.4961 12.166L14.6143 12.5166L16.5723 18.3096L16.5742 18.3154C16.6505 18.5309 16.677 18.6953 16.6758 18.8174L16.666 18.9258L16.6641 18.9385C16.6464 19.0529 16.5997 19.1267 16.5146 19.1895L16.5068 19.1963C16.4305 19.255 16.3601 19.2722 16.2559 19.251L16.2441 19.249L16.125 19.2188C16.039 19.1904 15.9404 19.1449 15.8281 19.0781L15.6504 18.9619L10.6904 15.3428L10.3955 15.127L10.1006 15.3428L5.14551 18.9648C4.9594 19.0971 4.8035 19.1765 4.67578 19.2188L4.55664 19.249L4.54395 19.251C4.43977 19.2722 4.36925 19.255 4.29297 19.1963L4.28516 19.1904L4.22559 19.1377C4.17508 19.0844 4.14269 19.0205 4.12598 18.9355C4.11125 18.8369 4.11738 18.7 4.16406 18.5166L4.22559 18.3154L4.22754 18.3096L6.18555 12.5166L6.30469 12.166L6.00293 11.9502L1.00098 8.37402L0.996094 8.37109C0.740569 8.19272 0.606807 8.03762 0.544922 7.91797C0.493328 7.81811 0.486729 7.73239 0.519531 7.63184C0.550358 7.54276 0.602771 7.48268 0.702148 7.43457H0.703125L0.712891 7.42871C0.835522 7.36609 1.0389 7.31641 1.35645 7.31641H7.85547L7.96777 6.96973L9.83008 1.19043C9.92721 0.895315 10.0347 0.716135 10.1299 0.615234C10.2151 0.530629 10.296 0.5 10.3955 0.5Z" stroke="#35353F"/>
</svg>
