<svg width="18" height="18" viewBox="0 0 18 18" fill="none" xmlns="http://www.w3.org/2000/svg">
<path d="M2.71875 17.7063C2.16146 17.7063 1.72656 17.5553 1.41406 17.2532C1.10677 16.9511 0.953125 16.5266 0.953125 15.9797V9.60474C1.19792 9.72453 1.45573 9.81828 1.72656 9.88599C2.0026 9.94849 2.28906 9.97974 2.58594 9.97974C2.96615 9.97974 3.32552 9.91984 3.66406 9.80005C4.00781 9.68026 4.3151 9.51359 4.58594 9.30005C4.86198 9.51359 5.16927 9.68026 5.50781 9.80005C5.85156 9.91984 6.21354 9.97974 6.59375 9.97974C6.97396 9.97974 7.33333 9.91984 7.67188 9.80005C8.01042 9.68026 8.3151 9.51619 8.58594 9.30786C8.86198 9.51619 9.16927 9.68026 9.50781 9.80005C9.84635 9.91984 10.2057 9.97974 10.5859 9.97974C10.9661 9.97974 11.3255 9.91984 11.6641 9.80005C12.0078 9.68026 12.3177 9.51359 12.5938 9.30005C12.8646 9.51359 13.1693 9.68026 13.5078 9.80005C13.8516 9.91984 14.2135 9.97974 14.5938 9.97974C14.8906 9.97974 15.1771 9.94328 15.4531 9.87036C15.7292 9.79224 15.9844 9.68807 16.2188 9.55786V15.9797C16.2188 16.5266 16.0651 16.9511 15.7578 17.2532C15.4505 17.5553 15.0182 17.7063 14.4609 17.7063H2.71875ZM3.57812 16.4485H7.84375V12.1907C7.84375 12.0084 7.78906 11.8652 7.67969 11.761C7.57552 11.6516 7.43229 11.5969 7.25 11.5969H4.17969C3.9974 11.5969 3.85156 11.6516 3.74219 11.761C3.63281 11.8652 3.57812 12.0084 3.57812 12.1907V16.4485ZM10.1875 14.5579H13.3594C13.5365 14.5579 13.6797 14.5058 13.7891 14.4016C13.8984 14.2922 13.9531 14.1464 13.9531 13.9641V11.8313C13.9531 11.6542 13.8984 11.511 13.7891 11.4016C13.6797 11.2922 13.5365 11.2375 13.3594 11.2375H10.1875C10.0052 11.2375 9.85938 11.2922 9.75 11.4016C9.64062 11.511 9.58594 11.6542 9.58594 11.8313V13.9641C9.58594 14.1464 9.64062 14.2922 9.75 14.4016C9.85938 14.5058 10.0052 14.5579 10.1875 14.5579ZM1.89062 2.34692V2.16724C1.89062 1.67244 2.03385 1.28442 2.32031 1.00317C2.61198 0.716715 3.01042 0.573486 3.51562 0.573486H13.5781C14.0781 0.573486 14.4714 0.716715 14.7578 1.00317C15.0495 1.28442 15.1953 1.67244 15.1953 2.16724V2.34692H1.89062ZM0.117188 6.19849C0.132812 6.17244 0.145833 6.1464 0.15625 6.12036C0.171875 6.09432 0.1875 6.06567 0.203125 6.03442L1.72656 3.10474H15.3594L16.8828 6.03442C16.8984 6.06567 16.9115 6.09432 16.9219 6.12036C16.9375 6.1464 16.9531 6.17244 16.9688 6.19849H0.117188ZM2.54688 9.22192C2.07292 9.22192 1.64323 9.12817 1.25781 8.94067C0.872396 8.75317 0.565104 8.51099 0.335938 8.21411C0.106771 7.91203 -0.0078125 7.59172 -0.0078125 7.25317V6.9563H17.1016V7.09692C17.1016 7.43547 16.987 7.7688 16.7578 8.09692C16.5339 8.41984 16.2266 8.68807 15.8359 8.90161C15.4505 9.11515 15.0208 9.22192 14.5469 9.22192C14.1302 9.22192 13.75 9.13338 13.4062 8.9563C13.0625 8.77401 12.7786 8.53182 12.5547 8.22974C12.3307 8.53182 12.0443 8.77401 11.6953 8.9563C11.3464 9.13338 10.9635 9.22192 10.5469 9.22192C10.1302 9.22192 9.7474 9.13338 9.39844 8.9563C9.05469 8.77401 8.77083 8.53182 8.54688 8.22974C8.32292 8.53182 8.03646 8.77401 7.6875 8.9563C7.34375 9.13338 6.96354 9.22192 6.54688 9.22192C6.13021 9.22192 5.7474 9.13338 5.39844 8.9563C5.05469 8.77401 4.77083 8.53182 4.54688 8.22974C4.32292 8.53182 4.03646 8.77401 3.6875 8.9563C3.34375 9.13338 2.96354 9.22192 2.54688 9.22192Z" fill="#C5C8CF"/>
</svg>
