<svg width="13" height="8" viewBox="0 0 13 8" fill="none" xmlns="http://www.w3.org/2000/svg">
<path d="M6.50004 0C6.40514 0 6.31779 0.0177234 6.23791 0.0531695C6.15304 0.0886163 6.07566 0.141786 6.00577 0.212682L0.194701 6.23601C0.0649 6.37278 0 6.53735 0 6.72979C0 6.86143 0.0299533 6.9779 0.0898613 7.07915C0.149769 7.18551 0.232143 7.26906 0.336982 7.32979C0.436828 7.39564 0.551653 7.42857 0.68145 7.42857C0.866171 7.42857 1.02842 7.36019 1.1682 7.22349L6.50004 1.69383L11.8318 7.22349C11.9716 7.36019 12.1339 7.42857 12.3186 7.42857C12.4484 7.42857 12.5632 7.39564 12.663 7.32979C12.7679 7.26906 12.8503 7.18551 12.9102 7.07915C12.9701 6.9779 13 6.86143 13 6.72979C13 6.53735 12.9326 6.37278 12.7978 6.23601L6.99425 0.212682C6.92434 0.141786 6.84945 0.0886163 6.76957 0.0531695C6.68471 0.0177234 6.59487 0 6.50004 0Z" fill="#80818B"/>
</svg>
