<svg width="12" height="12" viewBox="0 0 12 12" fill="none" xmlns="http://www.w3.org/2000/svg">
<path d="M0.198751 11.8032C0.107972 11.7173 0.0474528 11.6164 0.0171932 11.5003C-0.00802342 11.3842 -0.00550195 11.2681 0.0247583 11.152C0.0550173 11.036 0.113015 10.935 0.198751 10.8492L5.04029 5.99621L0.198751 1.15079C0.113015 1.06498 0.0550173 0.964038 0.0247583 0.847948C-0.000458361 0.731858 -0.000458361 0.615775 0.0247583 0.499685C0.0550173 0.383596 0.113015 0.282649 0.198751 0.196845C0.284486 0.105994 0.385351 0.0479496 0.501347 0.0227134C0.617344 -0.00757113 0.733335 -0.00757113 0.849331 0.0227134C0.97037 0.0479496 1.07376 0.105994 1.15949 0.196845L6.00103 5.04227L10.8426 0.196845C10.9283 0.105994 11.0292 0.0479496 11.1452 0.0227134C11.2611 -0.00757113 11.3771 -0.00757113 11.4931 0.0227134C11.6091 0.0479496 11.7126 0.105994 11.8033 0.196845C11.889 0.282649 11.947 0.383596 11.9773 0.499685C12.0076 0.615775 12.0076 0.731858 11.9773 0.847948C11.947 0.964038 11.889 1.06498 11.8033 1.15079L6.96178 5.99621L11.8033 10.8492C11.889 10.935 11.9445 11.036 11.9697 11.152C12 11.2681 12 11.3842 11.9697 11.5003C11.9445 11.6164 11.889 11.7173 11.8033 11.8032C11.7176 11.894 11.6142 11.952 11.4931 11.9773C11.3771 12.0076 11.2611 12.0076 11.1452 11.9773C11.0292 11.947 10.9283 11.889 10.8426 11.8032L6.00103 6.95774L1.15949 11.8032C1.07376 11.889 0.972894 11.947 0.856897 11.9773C0.7409 12.0076 0.62491 12.0076 0.508912 11.9773C0.392916 11.947 0.28953 11.889 0.198751 11.8032Z" fill="#9FA2AA"/>
</svg>
