<svg width="46" height="46" viewBox="0 0 46 46" fill="none" xmlns="http://www.w3.org/2000/svg">
<g filter="url(#filter0_di_920_22930)">
<circle cx="22" cy="20" r="19" fill="url(#paint0_linear_920_22930)"/>
<path d="M12.332 20.5391C12.332 20.25 12.4336 20.0039 12.6367 19.8008C12.8477 19.5898 13.0938 19.4844 13.375 19.4844H20.957V11.9141C20.957 11.6328 21.0586 11.3906 21.2617 11.1875C21.4648 10.9766 21.7109 10.8711 22 10.8711C22.2891 10.8711 22.5352 10.9766 22.7383 11.1875C22.9492 11.3906 23.0547 11.6328 23.0547 11.9141V19.4844H30.625C30.9062 19.4844 31.1484 19.5898 31.3516 19.8008C31.5625 20.0039 31.668 20.25 31.668 20.5391C31.668 20.8281 31.5625 21.0742 31.3516 21.2773C31.1484 21.4805 30.9062 21.582 30.625 21.582H23.0547V29.1641C23.0547 29.4453 22.9492 29.6875 22.7383 29.8906C22.5352 30.1016 22.2891 30.207 22 30.207C21.7109 30.207 21.4648 30.1016 21.2617 29.8906C21.0586 29.6875 20.957 29.4453 20.957 29.1641V21.582H13.375C13.0938 21.582 12.8477 21.4805 12.6367 21.2773C12.4336 21.0742 12.332 20.8281 12.332 20.5391Z" fill="url(#paint1_linear_920_22930)" fill-opacity="0.8"/>
</g>
<defs>
<filter id="filter0_di_920_22930" x="-1" y="-3" width="47" height="49" filterUnits="userSpaceOnUse" color-interpolation-filters="sRGB">
<feFlood flood-opacity="0" result="BackgroundImageFix"/>
<feColorMatrix in="SourceAlpha" type="matrix" values="0 0 0 0 0 0 0 0 0 0 0 0 0 0 0 0 0 0 127 0" result="hardAlpha"/>
<feOffset dx="1" dy="3"/>
<feGaussianBlur stdDeviation="2"/>
<feComposite in2="hardAlpha" operator="out"/>
<feColorMatrix type="matrix" values="0 0 0 0 0 0 0 0 0 0 0 0 0 0 0 0 0 0 0.15 0"/>
<feBlend mode="normal" in2="BackgroundImageFix" result="effect1_dropShadow_920_22930"/>
<feBlend mode="normal" in="SourceGraphic" in2="effect1_dropShadow_920_22930" result="shape"/>
<feColorMatrix in="SourceAlpha" type="matrix" values="0 0 0 0 0 0 0 0 0 0 0 0 0 0 0 0 0 0 127 0" result="hardAlpha"/>
<feOffset dx="0.318318" dy="0.318318"/>
<feGaussianBlur stdDeviation="0.477476"/>
<feComposite in2="hardAlpha" operator="arithmetic" k2="-1" k3="1"/>
<feColorMatrix type="matrix" values="0 0 0 0 1 0 0 0 0 1 0 0 0 0 1 0 0 0 1 0"/>
<feBlend mode="normal" in2="shape" result="effect2_innerShadow_920_22930"/>
</filter>
<linearGradient id="paint0_linear_920_22930" x1="22.4037" y1="20.5756" x2="10.0737" y2="49.3928" gradientUnits="userSpaceOnUse">
<stop stop-color="#90212A"/>
<stop offset="1" stop-color="#DACBB6"/>
</linearGradient>
<linearGradient id="paint1_linear_920_22930" x1="11.7611" y1="35" x2="44.4256" y2="34.53" gradientUnits="userSpaceOnUse">
<stop offset="0.24136" stop-color="white"/>
<stop offset="1" stop-color="white" stop-opacity="0"/>
</linearGradient>
</defs>
</svg>
