<svg xmlns="http://www.w3.org/2000/svg" width="18" height="18" viewBox="0 0 18 18" fill="none">
  <path d="M0 7.28025C0 6.27673 0.190379 5.33704 0.571137 4.46122C0.951895 3.57931 1.48004 2.80385 2.15558 2.13482C2.83112 1.46579 3.61106 0.942724 4.4954 0.565637C5.38588 0.188543 6.33777 0 7.35108 0C8.36438 0 9.31318 0.188543 10.1975 0.565637C11.088 0.942724 11.871 1.46579 12.5466 2.13482C13.2221 2.80385 13.7503 3.57931 14.131 4.46122C14.5118 5.33704 14.7022 6.27673 14.7022 7.28025C14.7022 8.11348 14.567 8.90421 14.2969 9.65228C14.0327 10.4004 13.6643 11.0785 13.1914 11.6868L17.696 16.1753C17.7943 16.2726 17.8679 16.3851 17.9171 16.5129C17.9724 16.6406 18 16.7775 18 16.9235C18 17.1242 17.9539 17.3066 17.8618 17.4708C17.7759 17.635 17.653 17.7628 17.4934 17.854C17.3337 17.9513 17.1495 18 16.9407 18C16.7933 18 16.652 17.9726 16.5169 17.9179C16.3879 17.8692 16.2682 17.7932 16.1577 17.6898L11.6254 13.1921C11.0235 13.6179 10.3603 13.9523 9.63563 14.1957C8.91094 14.4389 8.14947 14.5605 7.35108 14.5605C6.33777 14.5605 5.38588 14.372 4.4954 13.9949C3.61106 13.6179 2.83112 13.0948 2.15558 12.4257C1.48004 11.7567 0.951895 10.9843 0.571137 10.1085C0.190379 9.22652 0 8.28382 0 7.28025ZM1.57523 7.28025C1.57523 8.07098 1.72262 8.81297 2.0174 9.50631C2.31832 10.1936 2.73286 10.7988 3.26101 11.3218C3.7953 11.8449 4.40942 12.2555 5.10338 12.5535C5.80348 12.8515 6.55272 13.0005 7.35108 13.0005C8.14947 13.0005 8.89562 12.8515 9.58957 12.5535C10.2897 12.2555 10.9038 11.8449 11.432 11.3218C11.9601 10.7988 12.3747 10.1936 12.6756 9.50631C12.9765 8.81297 13.1269 8.07098 13.1269 7.28025C13.1269 6.4896 12.9765 5.75062 12.6756 5.06335C12.3747 4.36999 11.9601 3.76178 11.432 3.23872C10.9038 2.70957 10.2897 2.29903 9.58957 2.00709C8.89562 1.70907 8.14947 1.56006 7.35108 1.56006C6.55272 1.56006 5.80348 1.70907 5.10338 2.00709C4.40942 2.29903 3.7953 2.70957 3.26101 3.23872C2.73286 3.76178 2.31832 4.36999 2.0174 5.06335C1.72262 5.75062 1.57523 6.4896 1.57523 7.28025Z" fill="#90212A"/>
</svg>