<svg width="13" height="16" viewBox="0 0 13 16" fill="none" xmlns="http://www.w3.org/2000/svg">
<path d="M2.72949 0.625H10.2705C11.1112 0.625 11.6299 0.794195 11.9297 1.0293C12.2008 1.24207 12.375 1.57376 12.375 2.14062V15.0898C12.375 15.2379 12.3354 15.2761 12.3164 15.293C12.2846 15.3211 12.1988 15.375 11.9775 15.375C11.8556 15.375 11.7463 15.3445 11.6377 15.2793C11.5501 15.2244 11.4327 15.1455 11.2842 15.041L10.7295 14.6396L6.96582 11.7734L6.96387 11.7744C6.85758 11.6911 6.70137 11.6084 6.5 11.6084C6.29824 11.6084 6.14145 11.691 6.03516 11.7744L6.03418 11.7734L2.26367 14.6445C1.82942 14.9704 1.53473 15.1736 1.36426 15.2725L1.35449 15.2783C1.24249 15.346 1.13541 15.375 1.02246 15.375C0.801263 15.375 0.715529 15.3212 0.683594 15.293C0.664477 15.276 0.625 15.2377 0.625 15.0898V2.14062C0.625036 1.57381 0.799206 1.24209 1.07031 1.0293C1.37005 0.7942 1.88886 0.625 2.72949 0.625Z" fill="white" stroke="#90212A" stroke-width="1.25"/>
</svg>
