<svg width="10" height="17" viewBox="0 0 10 17" fill="none" xmlns="http://www.w3.org/2000/svg">
<path d="M10 8.49995C10 8.62405 9.97614 8.73828 9.92843 8.84273C9.88071 8.95371 9.80914 9.0549 9.7137 9.1463L1.60536 16.7454C1.42126 16.9151 1.19972 17 0.940671 17C0.76346 17 0.606667 16.9608 0.470378 16.8825C0.327196 16.8041 0.214727 16.6964 0.132972 16.5593C0.044323 16.4288 -1.84428e-06 16.2786 -1.82944e-06 16.1089C-1.80833e-06 15.8673 0.0920497 15.6551 0.276066 15.4723L7.71984 8.49995L0.276067 1.52763C0.092051 1.34479 -5.20179e-07 1.13262 -4.99066e-07 0.891124C-4.84221e-07 0.721322 0.0443244 0.571241 0.132973 0.440631C0.214729 0.303502 0.327198 0.195788 0.470379 0.11749C0.606668 0.0391075 0.763462 -8.07484e-07 0.940672 -7.91992e-07C1.19973 -7.69345e-07 1.42126 0.0880749 1.60536 0.264394L9.7137 7.85367C9.80914 7.94509 9.88071 8.04303 9.92843 8.14748C9.97614 8.25845 10 8.37594 10 8.49995Z" fill="white"/>
</svg>
