<svg width="17" height="19" viewBox="0 0 17 19" fill="none" xmlns="http://www.w3.org/2000/svg">
<path d="M1.36036 15.3805C0.93393 15.3805 0.6006 15.2813 0.36036 15.0827C0.12012 14.8841 0 14.6193 0 14.2884C0 13.9875 0.0870861 13.6957 0.261258 13.4128C0.435438 13.13 0.651654 12.8532 0.909906 12.5824C1.17417 12.3116 1.43544 12.0409 1.69369 11.7701C1.89189 11.5655 2.04505 11.2977 2.15315 10.9667C2.26727 10.6358 2.35135 10.2838 2.40541 9.91067C2.45946 9.53765 2.4985 9.17657 2.52252 8.82757C2.54054 7.67223 2.66366 6.64323 2.89189 5.74062C3.12011 4.83801 3.47748 4.07981 3.96396 3.46604C4.45646 2.85225 5.1021 2.40095 5.9009 2.11211C6.06906 1.52241 6.37838 1.02296 6.82882 0.613775C7.27923 0.204592 7.83482 0 8.4955 0C9.16218 0 9.72069 0.204592 10.1712 0.613775C10.6216 1.02296 10.9309 1.52241 11.0991 2.11211C11.8979 2.40095 12.5405 2.85225 13.027 3.46604C13.5135 4.07981 13.8709 4.83801 14.0991 5.74062C14.3333 6.64323 14.4595 7.67223 14.4774 8.82757C14.5015 9.17657 14.5406 9.53765 14.5946 9.91067C14.6486 10.2838 14.7298 10.6358 14.8378 10.9667C14.9519 11.2977 15.1081 11.5655 15.3063 11.7701C15.5646 12.0409 15.8228 12.3116 16.0811 12.5824C16.3453 12.8532 16.5646 13.13 16.7387 13.4128C16.9129 13.6957 17 13.9875 17 14.2884C17 14.6193 16.8798 14.8841 16.6396 15.0827C16.3994 15.2813 16.066 15.3805 15.6396 15.3805H1.36036ZM8.4955 19C7.99096 19 7.53754 18.8887 7.13517 18.666C6.73273 18.4434 6.40841 18.1515 6.16215 17.7905C5.91591 17.4294 5.77477 17.0383 5.73873 16.6171H11.2612C11.2192 17.0383 11.0751 17.4294 10.8288 17.7905C10.5886 18.1515 10.2673 18.4434 9.86483 18.666C9.46246 18.8887 9.00597 19 8.4955 19Z" fill="#90212A"/>
</svg>
