<svg width="17" height="21" viewBox="0 0 17 21" fill="none" xmlns="http://www.w3.org/2000/svg">
<path d="M2.17613 21C1.78048 21 1.47188 20.8956 1.25031 20.6867C1.02875 20.4779 0.917969 20.1842 0.917969 19.8057V2.8098C0.917969 1.87646 1.19888 1.17483 1.7607 0.704901C2.32252 0.23497 3.1613 0 4.27703 0H13.5589C14.6747 0 15.5134 0.23497 16.0753 0.704901C16.6371 1.17483 16.918 1.87646 16.918 2.8098V19.8057C16.918 20.1842 16.8073 20.4779 16.5856 20.6867C16.3641 20.8956 16.0555 21 15.6598 21C15.3671 21 15.0941 20.9185 14.8409 20.7553C14.5956 20.5921 14.2039 20.2984 13.6658 19.8742L9.02482 16.1049C8.9536 16.0396 8.88238 16.0396 8.81116 16.1049L4.1702 19.8742C3.63212 20.3049 3.23647 20.5987 2.98325 20.7553C2.73004 20.9185 2.461 21 2.17613 21Z" fill="#C5C8CF"/>
</svg>
