<svg width="21" height="21" viewBox="0 0 21 21" fill="none" xmlns="http://www.w3.org/2000/svg">
<path d="M10.459 20.918C9.0166 20.918 7.66309 20.6446 6.39844 20.0977C5.13379 19.5576 4.02295 18.8091 3.06592 17.8521C2.10889 16.8882 1.35694 15.7774 0.810058 14.5196C0.27002 13.2549 0 11.9014 0 10.459C0 9.0166 0.27002 7.66309 0.810058 6.39844C1.35694 5.13379 2.10889 4.02295 3.06592 3.06592C4.02295 2.10889 5.13379 1.36035 6.39844 0.820317C7.66309 0.273437 9.0166 0 10.459 0C11.9014 0 13.2549 0.273437 14.5195 0.820317C15.7842 1.36035 16.895 2.10889 17.852 3.06592C18.8091 4.02295 19.5576 5.13379 20.0976 6.39844C20.6445 7.66309 20.918 9.0166 20.918 10.459C20.918 11.9014 20.6445 13.2549 20.0976 14.5196C19.5576 15.7774 18.8091 16.8882 17.852 17.8521C16.895 18.8091 15.7842 19.5576 14.5195 20.0977C13.2549 20.6446 11.9014 20.918 10.459 20.918ZM9.31055 15.4629C9.48828 15.4629 9.64891 15.4219 9.79251 15.3399C9.93601 15.2578 10.0625 15.1348 10.1719 14.9707L14.9912 7.37256C15.0527 7.27002 15.1108 7.16065 15.1655 7.04444C15.2202 6.92823 15.2476 6.81201 15.2476 6.6958C15.2476 6.45655 15.1587 6.26856 14.9809 6.13184C14.8032 5.98828 14.605 5.91651 14.3862 5.91651C14.0854 5.91651 13.8393 6.07373 13.6479 6.38819L9.26953 13.4224L7.18799 10.7359C7.05811 10.565 6.93164 10.4488 6.8086 10.3872C6.69239 10.3257 6.55908 10.295 6.40869 10.295C6.17627 10.295 5.98145 10.3804 5.82422 10.5513C5.66699 10.7154 5.58838 10.9136 5.58838 11.146C5.58838 11.2622 5.60889 11.3785 5.6499 11.4947C5.69776 11.604 5.75928 11.71 5.83447 11.8125L8.40821 14.9707C8.54492 15.1485 8.68506 15.2749 8.82862 15.3501C8.97217 15.4253 9.13281 15.4629 9.31055 15.4629Z" fill="#C5C8CF"/>
</svg>
