<svg width="16" height="22" viewBox="0 0 16 22" fill="none" xmlns="http://www.w3.org/2000/svg">
<path d="M1.25816 21.5C0.86251 21.5 0.553911 21.3956 0.332346 21.1867C0.110783 20.9779 0 20.6842 0 20.3057V3.3098C0 2.37646 0.280911 1.67483 0.842729 1.2049C1.40455 0.73497 2.24333 0.5 3.35906 0.5H12.6409C13.7567 0.5 14.5955 0.73497 15.1573 1.2049C15.7191 1.67483 16 2.37646 16 3.3098V20.3057C16 20.6842 15.8893 20.9779 15.6677 21.1867C15.4462 21.3956 15.1376 21.5 14.7418 21.5C14.4491 21.5 14.1761 21.4185 13.9229 21.2553C13.6776 21.0921 13.2859 20.7984 12.7478 20.3742L8.10685 16.6049C8.03563 16.5396 7.96441 16.5396 7.89319 16.6049L3.25223 20.3742C2.71415 20.8049 2.3185 21.0987 2.06528 21.2553C1.81207 21.4185 1.54303 21.5 1.25816 21.5Z" fill="white"/>
</svg>
