<svg xmlns="http://www.w3.org/2000/svg" width="13" height="22" viewBox="0 0 13 22" fill="none">
<path d="M0.769531 11C0.769531 10.8515 0.796875 10.7148 0.851562 10.5898C0.90625 10.457 0.988281 10.3359 1.09766 10.2266L10.3906 1.13281C10.6016 0.929687 10.8555 0.828125 11.1524 0.828125C11.3555 0.828125 11.5352 0.874999 11.6914 0.968749C11.8555 1.0625 11.9844 1.19141 12.0781 1.35547C12.1797 1.51172 12.2305 1.69141 12.2305 1.89453C12.2305 2.1836 12.125 2.4375 11.9141 2.65625L3.38281 11L11.9141 19.3437C12.125 19.5625 12.2305 19.8164 12.2305 20.1054C12.2305 20.3086 12.1797 20.4882 12.0781 20.6445C11.9844 20.8086 11.8555 20.9375 11.6914 21.0312C11.5352 21.125 11.3555 21.1718 11.1524 21.1718C10.8555 21.1718 10.6016 21.0664 10.3906 20.8554L1.09766 11.7734C0.988281 11.664 0.90625 11.5468 0.851562 11.4218C0.796875 11.289 0.769531 11.1484 0.769531 11Z" fill="black"/>
</svg>