<svg xmlns="http://www.w3.org/2000/svg" width="12" height="21" viewBox="0 0 12 21" fill="none">
  <path d="M11.4609 10.1718C11.4609 10.3203 11.4336 10.457 11.3789 10.582C11.3242 10.7148 11.2422 10.8359 11.1328 10.9453L1.83989 20.0391C1.62889 20.2422 1.37499 20.3437 1.07809 20.3437C0.874988 20.3437 0.695288 20.2969 0.539087 20.2031C0.374988 20.1094 0.246088 19.9805 0.152388 19.8164C0.050788 19.6602 -1.23223e-05 19.4805 -1.23045e-05 19.2773C-1.22793e-05 18.9883 0.105487 18.7344 0.316387 18.5156L8.84766 10.1718L0.316389 1.82814C0.105489 1.60934 -1.07378e-05 1.35544 -1.07125e-05 1.06644C-1.06947e-05 0.863236 0.0507896 0.683637 0.152389 0.527337C0.24609 0.363236 0.374989 0.234338 0.539089 0.140637C0.695289 0.0468378 0.874989 3.72215e-05 1.07809 3.72393e-05C1.37499 3.72652e-05 1.62889 0.105435 1.83989 0.316436L11.1328 9.39844C11.2422 9.50784 11.3242 9.62504 11.3789 9.75004C11.4336 9.88284 11.4609 10.0234 11.4609 10.1718Z" fill="#35353F"/>
</svg>