<svg width="18" height="19" viewBox="0 0 18 19" fill="none" xmlns="http://www.w3.org/2000/svg">
<path d="M0 7.35105C0 6.33778 0.190379 5.38895 0.571137 4.50461C0.951895 3.61413 1.48004 2.83112 2.15558 2.15558C2.83112 1.48004 3.61106 0.951892 4.4954 0.571139C5.38588 0.190377 6.33777 0 7.35108 0C8.36438 0 9.31318 0.190377 10.1975 0.571139C11.088 0.951892 11.871 1.48004 12.5466 2.15558C13.2221 2.83112 13.7503 3.61413 14.131 4.50461C14.5118 5.38895 14.7022 6.33778 14.7022 7.35105C14.7022 8.19239 14.567 8.99082 14.2969 9.74616C14.0327 10.5016 13.6643 11.1863 13.1914 11.8004L17.696 16.3326C17.7943 16.4309 17.8679 16.5445 17.9171 16.6735C17.9724 16.8025 18 16.9407 18 17.0881C18 17.2907 17.9539 17.4749 17.8618 17.6408C17.7759 17.8066 17.653 17.9355 17.4934 18.0277C17.3337 18.1259 17.1495 18.1751 16.9407 18.1751C16.7933 18.1751 16.652 18.1474 16.5169 18.0921C16.3879 18.043 16.2682 17.9662 16.1577 17.8618L11.6254 13.3204C11.0235 13.7503 10.3603 14.088 9.63563 14.3337C8.91094 14.5793 8.14947 14.7022 7.35108 14.7022C6.33777 14.7022 5.38588 14.5118 4.4954 14.131C3.61106 13.7503 2.83112 13.2221 2.15558 12.5466C1.48004 11.871 0.951895 11.0911 0.571137 10.2068C0.190379 9.31625 0 8.36439 0 7.35105ZM1.57523 7.35105C1.57523 8.14947 1.72262 8.89869 2.0174 9.59877C2.31832 10.2927 2.73286 10.9038 3.26101 11.4319C3.7953 11.9601 4.40942 12.3747 5.10338 12.6756C5.80348 12.9765 6.55272 13.1269 7.35108 13.1269C8.14947 13.1269 8.89562 12.9765 9.58957 12.6756C10.2897 12.3747 10.9038 11.9601 11.432 11.4319C11.9601 10.9038 12.3747 10.2927 12.6756 9.59877C12.9765 8.89869 13.1269 8.14947 13.1269 7.35105C13.1269 6.55272 12.9765 5.80655 12.6756 5.11259C12.3747 4.41249 11.9601 3.79837 11.432 3.27022C10.9038 2.73593 10.2897 2.32139 9.58957 2.02661C8.89562 1.72569 8.14947 1.57523 7.35108 1.57523C6.55272 1.57523 5.80348 1.72569 5.10338 2.02661C4.40942 2.32139 3.7953 2.73593 3.26101 3.27022C2.73286 3.79837 2.31832 4.41249 2.0174 5.11259C1.72262 5.80655 1.57523 6.55272 1.57523 7.35105Z" fill="#80818B"/>
</svg>
