<svg width="16" height="15" viewBox="0 0 16 15" fill="none" xmlns="http://www.w3.org/2000/svg">
<path d="M3.068 14.8728C2.91909 14.7644 2.82782 14.6183 2.7942 14.4345C2.76538 14.2507 2.7966 14.0316 2.88787 13.7771L4.39377 9.38028L0.546157 6.66587C0.320396 6.51036 0.16428 6.35015 0.077817 6.18517C-0.00864612 6.02026 -0.0230569 5.85061 0.0345851 5.67624C0.0922272 5.50659 0.20511 5.38171 0.37323 5.3016C0.541355 5.21678 0.764717 5.17436 1.04332 5.17436H5.76277L7.19661 0.784637C7.28306 0.525446 7.39115 0.329877 7.52082 0.197926C7.65535 0.0659749 7.81386 0 7.99641 0C8.18375 0 8.34226 0.0659749 8.47193 0.197926C8.60646 0.329877 8.71695 0.525446 8.8034 0.784637L10.2372 5.17436H14.9567C15.2353 5.17436 15.4586 5.21678 15.6267 5.3016C15.7949 5.38171 15.9078 5.50659 15.9654 5.67624C16.0231 5.85061 16.0086 6.02026 15.9222 6.18517C15.8357 6.35015 15.6796 6.51036 15.4538 6.66587L11.6062 9.38028L13.1121 13.7771C13.2034 14.0316 13.2322 14.2507 13.1986 14.4345C13.1697 14.6183 13.0809 14.7644 12.932 14.8728C12.7831 14.9859 12.615 15.0236 12.4276 14.9859C12.2403 14.9529 12.0361 14.8586 11.8152 14.7031L7.99641 11.9533L4.18481 14.7031C3.96386 14.8586 3.75971 14.9529 3.57237 14.9859C3.38503 15.0236 3.21691 14.9859 3.068 14.8728Z" fill="#E75257"/>
</svg>
