<svg xmlns="http://www.w3.org/2000/svg" width="18" height="18" viewBox="0 0 18 18" fill="none">
  <path d="M1.01203 17.2211C0.883429 17.0995 0.797694 16.9565 0.754826 16.7921C0.719102 16.6276 0.722674 16.4631 0.765543 16.2987C0.80841 16.1343 0.890573 15.9912 1.01203 15.8697L7.87088 8.99463L1.01203 2.13028C0.890573 2.00873 0.80841 1.86572 0.765543 1.70126C0.729819 1.5368 0.729819 1.37235 0.765543 1.20789C0.80841 1.04343 0.890573 0.90042 1.01203 0.778864C1.13349 0.650158 1.27638 0.567929 1.44071 0.532177C1.60504 0.489274 1.76936 0.489274 1.93369 0.532177C2.10516 0.567929 2.25163 0.650158 2.37308 0.778864L9.23193 7.64321L16.0908 0.778864C16.2122 0.650158 16.3552 0.567929 16.5195 0.532177C16.6837 0.489274 16.8481 0.489274 17.0124 0.532177C17.1768 0.567929 17.3233 0.650158 17.4518 0.778864C17.5733 0.90042 17.6554 1.04343 17.6983 1.20789C17.7412 1.37235 17.7412 1.5368 17.6983 1.70126C17.6554 1.86572 17.5733 2.00873 17.4518 2.13028L10.593 8.99463L17.4518 15.8697C17.5733 15.9912 17.6518 16.1343 17.6876 16.2987C17.7305 16.4631 17.7305 16.6276 17.6876 16.7921C17.6518 16.9565 17.5733 17.0995 17.4518 17.2211C17.3304 17.3498 17.1839 17.432 17.0124 17.4678C16.8481 17.5107 16.6837 17.5107 16.5195 17.4678C16.3552 17.4249 16.2122 17.3427 16.0908 17.2211L9.23193 10.3568L2.37308 17.2211C2.25163 17.3427 2.10874 17.4249 1.94441 17.4678C1.78008 17.5107 1.61576 17.5107 1.45143 17.4678C1.2871 17.4249 1.14064 17.3427 1.01203 17.2211Z" fill="white"/>
</svg>