<svg xmlns="http://www.w3.org/2000/svg" width="12" height="22" viewBox="0 0 12 22" fill="none">
  <path d="M0.269531 11C0.269531 10.8515 0.296875 10.7148 0.351562 10.5898C0.40625 10.457 0.488281 10.3359 0.597661 10.2266L9.89058 1.13281C10.1016 0.929687 10.3555 0.828125 10.6524 0.828125C10.8555 0.828125 11.0352 0.874999 11.1914 0.968749C11.3555 1.0625 11.4844 1.19141 11.5781 1.35547C11.6797 1.51172 11.7305 1.69141 11.7305 1.89453C11.7305 2.1836 11.625 2.4375 11.4141 2.65625L2.88281 11L11.4141 19.3437C11.625 19.5625 11.7305 19.8164 11.7305 20.1054C11.7305 20.3086 11.6797 20.4882 11.5781 20.6445C11.4844 20.8086 11.3555 20.9375 11.1914 21.0312C11.0352 21.125 10.8555 21.1718 10.6524 21.1718C10.3555 21.1718 10.1016 21.0664 9.89058 20.8554L0.597661 11.7734C0.488281 11.664 0.40625 11.5468 0.351562 11.4218C0.296875 11.289 0.269531 11.1484 0.269531 11Z" fill="white"/>
</svg>